<svg xmlns="http://www.w3.org/2000/svg" id="Sketch" viewBox="0 0 128 128"><defs><style>.cls-1{fill:#fdb300}.cls-2{fill:#ea6c00}.cls-3{fill:#fdad00}.cls-4{fill:#fdd231}.cls-5{fill:#feeeb7}</style></defs><title>Artboard 12</title><g id="original"><path d="M29.62,12.85,64,9.24l34.38,3.61L125,48.29,64,118.76,3,48.29Z" class="cls-1"/><polygon points="27.71 48.29 64 118.76 3 48.29 27.71 48.29" class="cls-2"/><polygon points="100.29 48.29 64 118.76 125 48.29 100.29 48.29" class="cls-2"/><polygon points="27.71 48.29 100.29 48.29 64 118.76 27.71 48.29" class="cls-3"/><polygon points="64 9.24 29.62 12.85 27.71 48.29 64 9.24" class="cls-4"/><polygon points="64 9.24 98.38 12.85 100.29 48.29 64 9.24" class="cls-4"/><polygon points="125 48.29 98.38 12.85 100.29 48.29 125 48.29" class="cls-3"/><polygon points="64 9.24 27.71 48.29 100.29 48.29 64 9.24" class="cls-5"/><polygon points="3 48.29 29.62 12.85 27.71 48.29 3 48.29" class="cls-3"/></g></svg>